<svg xmlns="http://www.w3.org/2000/svg" width="26" height="119" viewBox="0 0 26 119"><g><g><path fill="#78b660" d="M24.491 116.5h-7.483c-4.39 0-4.517-4.489-4.517-5v-33c0-.34-.036-8.382-3.2-12.6-2.165-2.887-4.792-5.233-6.198-6.4 1.406-1.168 4.033-3.513 6.198-6.4 3.164-4.218 3.2-12.26 3.2-12.6v-33c0-.512.127-5 4.517-5h7.483a1 1 0 1 0 0-2h-7.483c-4.478 0-6.517 3.628-6.517 7v33c0 .076-.038 7.716-2.8 11.4-2.874 3.832-6.761 6.77-6.8 6.8-.049.036-.076.088-.116.131-.026.027-.06.039-.083.069-.013.016-.014.036-.025.052-.04.059-.064.121-.089.186-.023.058-.048.113-.06.172-.012.064-.01.126-.01.19s-.002.126.01.189c.012.06.037.115.06.172.025.065.05.128.089.186.01.017.012.037.025.053.022.03.057.042.083.069.04.043.067.094.116.13.039.03 3.926 2.968 6.8 6.8 2.762 3.684 2.8 11.325 2.8 11.401v33c0 3.371 2.04 7 6.517 7h7.483a1 1 0 1 0 0-2z"/></g></g></svg>