<svg xmlns="http://www.w3.org/2000/svg" width="26" height="119" viewBox="0 0 26 119"><g><g><path fill="#78b660" d="M1.508 116.5h7.484c4.39 0 4.516-4.489 4.516-5v-33c0-.34.037-8.382 3.2-12.6 2.165-2.887 4.793-5.233 6.2-6.4-1.407-1.168-4.035-3.513-6.2-6.4-3.163-4.218-3.2-12.26-3.2-12.6v-33c0-.512-.127-5-4.516-5H1.508a1 1 0 1 1 0-2h7.484c4.477 0 6.516 3.628 6.516 7v33c0 .076.039 7.716 2.8 11.4 2.875 3.832 6.762 6.77 6.8 6.8.05.036.077.088.117.131.026.027.06.039.083.069.012.016.014.036.025.052.04.059.064.121.089.186.023.058.048.113.06.172.012.064.01.126.01.19s.002.126-.01.189c-.012.06-.037.115-.06.172-.025.065-.05.128-.089.186-.01.017-.013.037-.025.053-.022.03-.057.042-.083.069-.04.043-.068.094-.117.13-.038.03-3.925 2.968-6.8 6.8-2.761 3.684-2.8 11.325-2.8 11.401v33c0 3.371-2.039 7-6.516 7H1.508a1 1 0 1 1 0-2z"/></g></g></svg>